inDegrees=yes
name=ik_S40_A07_T01
DataType=double
version=3
OpenSimVersion=4.3-2021-08-27-4bc7ad9
endheader
time	pelvis_tilt	pelvis_list	pelvis_rotation	pelvis_tx	pelvis_ty	pelvis_tz	hip_flexion_r	hip_adduction_r	hip_rotation_r	knee_angle_r	knee_angle_r_beta	ankle_angle_r	subtalar_angle_r	mtp_angle_r	hip_flexion_l	hip_adduction_l	hip_rotation_l	knee_angle_l	knee_angle_l_beta	ankle_angle_l	subtalar_angle_l	mtp_angle_l	lumbar_extension	lumbar_bending	lumbar_rotation	arm_flex_r	arm_add_r	arm_rot_r	elbow_flex_r	pro_sup_r	wrist_flex_r	wrist_dev_r	arm_flex_l	arm_add_l	arm_rot_l	elbow_flex_l	pro_sup_l	wrist_flex_l	wrist_dev_l
14.77999999999977	-5.21295153456657	-2.023055263435419	37.17335964063361	0	0.9399999999999999	0	32.94686534451821	-9.653962022666139	-9.049396824826818	38.12022854383822	0.6653234997027004	0	0	0	32.94686534451821	-9.653962022666139	-9.049396824826818	38.12022854383822	0.6653234997027004	0	0	0	-3.713344958829891	-1.638623879555345	4.998561348933324	59.137863274852	4.089671611965024	30.09477487521963	31.80780524520246	85.42451332090215	0	0	19.9837369907562	-2.237906979955116	12.13022058755706	41.66873603105383	125.5792935485907	0	0
14.79999999999977	-5.193322412486734	-1.996389472708801	37.14348113748729	0	0.9399999999999999	0	32.95018233931346	-9.654283699827198	-9.049965364640746	38.12349841077951	0.6653805696469282	0	0	0	32.95018233931346	-9.654283699827198	-9.049965364640746	38.12349841077951	0.6653805696469282	0	0	0	-3.681535123873227	-1.629760296082866	5.007826365767109	59.28733302894455	3.983469916774991	30.2113617402443	31.36633942512018	85.93070011629835	0	0	20.01490639939717	-2.221186228605037	12.101147634732	41.60512448672813	125.5688826098099	0	0
14.81999999999977	-5.17496467257876	-1.982369211844423	37.07430067334342	0	0.9399999999999999	0	32.95366442317673	-9.654622591861305	-9.050563626863692	38.12691861191084	0.6654402634177502	0	0	0	32.95366442317673	-9.654622591861305	-9.050563626863692	38.12691861191084	0.6654402634177502	0	0	0	-3.657123378326067	-1.634097831007565	5.0643432185503	59.58557863486004	3.678671011215443	30.0696964339609	31.05466366374085	86.57513565715388	0	0	19.97115862996117	-2.233015694967976	12.09449223671643	41.59549428734185	125.5880355894562	0	0
14.83999999999977	-5.134935324586555	-1.936624906255665	36.94988150811848	0	0.9399999999999999	0	32.95832385941397	-9.655077839895787	-9.051366298404906	38.13147617826611	0.6655198079565279	0	0	0	32.95832385941397	-9.655077839895787	-9.051366298404906	38.13147617826611	0.6655198079565279	0	0	0	-3.598110820318605	-1.62077283657629	5.060482266128576	59.70099473157951	3.460601571026322	29.89681792241941	30.92828300257283	87.22928349265771	0	0	19.94364279473188	-2.289799807846616	12.02855256998754	41.49827111032381	125.4903709455839	0	0
14.85999999999977	-5.143441366082147	-1.921183380774011	36.87126382243101	0	0.9399999999999999	0	32.96206890388119	-9.655443258555398	-9.052010973451871	38.13514153933156	0.6655837805753942	0	0	0	32.96206890388119	-9.655443258555398	-9.052010973451871	38.13514153933156	0.6655837805753942	0	0	0	-3.595904509390844	-1.603093811350345	5.065444966063323	59.76054259369874	3.263506880502876	29.66645972998569	31.13532415772193	87.38551095206853	0	0	19.94123600528857	-2.289981189181035	11.94939537557312	41.47794888594596	125.4993522594641	0	0
14.87999999999977	-5.142768121476298	-1.918397264242038	36.76709512347217	0	0.9399999999999999	0	32.96518334513405	-9.655746488299243	-9.052546406586758	38.13819399823569	0.6656370560335532	0	0	0	32.96518334513405	-9.655746488299243	-9.052546406586758	38.13819399823569	0.6656370560335532	0	0	0	-3.59333869488108	-1.602699377514283	5.090276165003398	59.61457115239796	3.094974027148259	29.32126043746865	31.80538384960749	86.89896370412018	0	0	19.94435886118733	-2.320992806116321	12.08105434136231	41.42883214196549	125.3573664060585	0	0
14.89999999999977	-5.140726407380643	-1.922205102610038	36.6253291423868	0	0.9399999999999999	0	32.96890373117662	-9.656105904277924	-9.053182893576603	38.14186350560182	0.6657011010190184	0	0	0	32.96890373117662	-9.656105904277924	-9.053182893576603	38.14186350560182	0.6657011010190184	0	0	0	-3.592447844404139	-1.613805204082564	5.18021762542375	59.2515269407665	2.861940478231348	28.85531369153234	33.25421367642597	86.09794201982466	0	0	19.96609051776491	-2.350904901044911	12.08628103736782	41.38356528098129	125.2928493445697	0	0
14.91999999999977	-5.153289412650343	-1.899514101780452	36.4198745526617	0	0.9399999999999999	0	32.97432470744586	-9.656631201743217	-9.054112264001834	38.14719229713348	0.6657941059763982	0	0	0	32.97432470744586	-9.656631201743217	-9.054112264001834	38.14719229713348	0.6657941059763982	0	0	0	-3.586813468502865	-1.596836261698424	5.297786533800999	58.72814611444611	2.485917898608285	28.13968176431822	35.51857260757009	86.23906901073138	0	0	19.96808345128782	-2.303624164647963	11.94476655055502	41.35746004671944	125.2776828901949	0	0
14.93999999999977	-5.165086518533211	-1.888018916636746	36.15262919314647	0	0.9399999999999999	0	32.98229901472919	-9.657405375318087	-9.055481337561828	38.15500947100284	0.6659305413986195	0	0	0	32.98229901472919	-9.657405375318087	-9.055481337561828	38.15500947100284	0.6659305413986195	0	0	0	-3.586311769711379	-1.593079072629203	5.48019458629638	58.15830861976047	1.956701188688387	27.03940547740094	38.50624279169886	87.30256934522289	0	0	19.95594646293354	-2.308833302986647	11.79757845048092	41.37056079276977	125.296942145608	0	0
14.95999999999977	-5.182159708987094	-1.872560969878839	35.82296665728986	0	0.9399999999999999	0	32.98881461807452	-9.658036717796216	-9.05659883575154	38.16140079758951	0.6660420910911272	0	0	0	32.98881461807452	-9.658036717796216	-9.05659883575154	38.16140079758951	0.6660420910911272	0	0	0	-3.58606817101258	-1.587301252205806	5.718656381308848	57.43880093415427	1.216474857643022	25.55342207482806	42.19793985851769	88.60895676646221	0	0	19.95990844241684	-2.283926148147021	11.62293518375267	41.39282906513661	125.3702376044494	0	0
14.97999999999977	-5.197706097124246	-1.84534035526135	35.4381755450117	0	0.9399999999999999	0	32.99756154122885	-9.65888452785998	-9.058099705956073	38.16996801449503	0.666191617233861	0	0	0	32.99756154122885	-9.65888452785998	-9.058099705956073	38.16996801449503	0.666191617233861	0	0	0	-3.575788291850445	-1.578488908322566	6.035015540530975	56.48253707244779	0.2735631628588103	23.72412147773987	46.56170011996279	90.41116827140991	0	0	19.96115623813182	-2.225743854450594	11.44257692441665	41.40410679763663	125.469828781178	0	0
14.99999999999977	-5.233240332453286	-1.807566423046021	35.01569319148403	0	0.9399999999999999	0	33.00433627413893	-9.659539022341455	-9.059259987980527	38.17661536893876	0.666307635455451	0	0	0	33.00433627413893	-9.659539022341455	-9.059259987980527	38.17661536893876	0.666307635455451	0	0	0	-3.574010467188104	-1.553335333109457	6.417650380735932	55.24991239815279	-0.8238628158822635	21.70591294510388	51.18870672207117	92.55144184969251	0	0	20.0312510697967	-2.075642762293083	11.17235301406538	41.35015305581881	125.6322353450082	0	0
15.01999999999977	-5.254537814700128	-1.77939851266501	34.57330891579159	0	0.9399999999999999	0	33.01070275881569	-9.660152734717574	-9.060349051745176	38.18286784013753	0.6664167616642558	0	0	0	33.01070275881569	-9.660152734717574	-9.060349051745176	38.18286784013753	0.6664167616642558	0	0	0	-3.56455940516226	-1.54709909984462	6.839719472954452	53.77906663329532	-1.999037357066753	19.63846824945871	55.8085817976521	94.82266948172236	0	0	20.12451083053917	-1.959089499904889	10.83587394316418	41.31735009807377	125.8459666900679	0	0
15.03999999999977	-5.280379621736895	-1.753246622562811	34.14018459878063	0	0.9399999999999999	0	33.01671279312833	-9.660731322511475	-9.061376464834892	38.18877169228956	0.6665198033228596	0	0	0	33.01671279312833	-9.660731322511475	-9.061376464834892	38.18877169228956	0.6665198033228596	0	0	0	-3.559437059519023	-1.538978227185922	7.250660633446442	52.15543261932996	-3.279492998589301	17.76753103843542	60.27775722819376	96.77893831858476	0	0	20.20006944294891	-1.857431358315435	10.5144191222116	41.28470529385421	126.042674896461	0	0
15.05999999999977	-5.301315273707552	-1.725601091094034	33.74088746441947	0	0.9399999999999999	0	33.02329057658427	-9.661364631291214	-9.062501244967182	38.19522606524425	0.6666324533820707	0	0	0	33.02329057658427	-9.661364631291214	-9.062501244967182	38.19522606524425	0.6666324533820707	0	0	0	-3.548902751319868	-1.537024328000546	7.637960528801771	50.31622796658165	-4.653628201357142	16.10906125583136	64.50241674243811	98.37614819727655	0	0	20.21401487818383	-1.777518162148113	10.3095810889633	41.29652447194641	126.174067354602	0	0
15.07999999999977	-5.310036927292096	-1.695430558689788	33.8025817190499	0	0.9399999999999999	0	33.03082029201914	-9.662081443099217	-9.06377963536627	38.20268430920131	0.6667626242955383	0	0	0	33.03082029201914	-9.662081443099217	-9.06377963536627	38.20268430920131	0.6667626242955383	0	0	0	-3.542558495348047	-1.498003790136654	7.534255112131907	50.26676655735793	-4.619153946092439	16.18014867969017	65.83668159377775	99.32156927820063	0	0	20.16462402766713	-1.730993152005786	10.17621200309049	41.33549786278093	126.2617605475173	0	0
15.09999999999977	-5.372084548877154	-1.663602747526308	33.68783241319539	0	0.9399999999999999	0	33.03524477122774	-9.662490346989868	-9.064516678731668	38.20718055595236	0.6668410986053261	0	0	0	33.03524477122774	-9.662490346989868	-9.064516678731668	38.20718055595236	0.6668410986053261	0	0	0	-3.5770005102308	-1.436520332179967	7.529475980641676	50.32853294390204	-4.595885950874716	16.36946304545954	66.53995019096271	100.2721336490262	0	0	20.16544788303482	-1.632896585612561	10.01284251880097	41.40690720842291	126.2827312348417	0	0
15.11999999999977	-5.393293306797555	-1.653542424898671	33.63824081460915	0	0.9399999999999999	0	33.04698673988327	-9.663572889585486	-9.066470212827918	38.21877415209749	0.6670434450302053	0	0	0	33.04698673988327	-9.663572889585486	-9.066470212827918	38.21877415209749	0.6670434450302053	0	0	0	-3.590866220575227	-1.412687314776701	7.505770542810354	50.34626986394908	-4.57415343228874	16.44328981915135	66.56444159140477	100.2958543902269	0	0	20.13945143583454	-1.614458627036757	9.92772404807468	41.43304577472561	126.2848622264653	0	0
